# AST/ASF file generated using VICON BodyLanguage
# -----------------------------------------------
:version 1.10
:name VICON
:units
  mass 1.0
  length 0.45
  angle deg
:documentation
   .ast/.asf automatically generated from VICON data using
   VICON BodyBuilder and BodyLanguage model FoxedUp or BRILLIANT.MOD
:root
   order TX TY TZ RX RY RZ
   axis XYZ
   position 0 0 0  
   orientation 0 0 0 
:bonedata
  begin
     id 1 
     name lhipjoint
     direction 0.558404 -0.748506 0.357664 
     length 2.4234 
     axis 0 0 0  XYZ
  end
  begin
     id 2 
     name lfemur
     direction 0.34202 -0.939693 0  
     length 7.14567  
     axis 0 0 20  XYZ
    dof rx ry rz
    limits (-160.0 20.0)
           (-70.0 70.0)
           (-60.0 70.0)
  end
  begin
     id 3 
     name ltibia
     direction 0.34202 -0.939693 0   
     length 8.13956   
     axis 0 0 20   XYZ
    dof rx
    limits (-10.0 170.0)
  end
  begin
     id 4 
     name lfoot
     direction 0.0791314 -0.217412 0.972867   
     length 2.00134   
     axis -90 7.62852e-016 20   XYZ
    dof rx rz
    limits (-45.0 90.0)
           (-70.0 20.0)
  end
  begin
     id 5 
     name ltoes
     direction 1.53547e-011 -4.21922e-011 1   
     length 1.00735   
     axis -90 7.62852e-016 20   XYZ
    dof rx
    limits (-90.0 20.0)
  end
  begin
     id 6 
     name rhipjoint
     direction -0.496392 -0.78327 0.374276   
     length 2.31584  
     axis 0 0 0  XYZ 
  end
  begin
     id 7 
     name rfemur
     direction -0.34202 -0.939693 0   
     length 7.47417   
     axis 0 0 -20   XYZ
    dof rx ry rz
    limits (-160.0 20.0)
           (-70.0 70.0)
           (-70.0 60.0)
  end
  begin
     id 8 
     name rtibia
     direction -0.34202 -0.939693 0   
     length 7.69071   
     axis 0 0 -20   XYZ
    dof rx
    limits (-10.0 170.0)
 end
 begin
     id 9 
     name rfoot
     direction -0.103069 -0.28318 0.953512   
     length 2.16135  
     axis -90 -7.62852e-016 -20   XYZ
    dof rx rz
    limits (-45.0 90.0)
           (-20.0 70.0)
  end
  begin
     id 10 
     name rtoes
     direction -1.53581e-011 -4.21904e-011 1   
     length 1.07867   
     axis -90 -7.62852e-016 -20   XYZ
    dof rx
    limits (-90.0 20.0)
  end
  begin
     id 11 
     name lowerback
     direction -0.0258961 0.994776 -0.0987407   
     length 2.19412   
     axis 0 0 0   XYZ
    dof rx ry rz
    limits (-20.0 45.0)
           (-30.0 30.0)
           (-30.0 30.0)
  end
  begin
     id 12 
     name upperback
     direction 0.0402454 0.999185 0.00320666   
     length 2.18445   
     axis 0 0 0   XYZ
    dof rx ry rz
    limits (-20.0 45.0)
           (-30.0 30.0)
           (-30.0 30.0)
  end
  begin
     id 13 
     name thorax
     direction 0.0519376 0.997415 0.0496558   
     length 2.21487   
     axis 0 0 0   XYZ
    dof rx ry rz
    limits (-20.0 45.0)
           (-30.0 30.0)
           (-30.0 30.0)
  end
  begin
     id 14 
     name lowerneck
     direction -0.0921276 0.983211 0.157506   
     length 1.61201   
     axis 0 0 0   XYZ
    dof rx ry rz
    limits (-20.0 45.0)
           (-30.0 30.0)
           (-30.0 30.0)
  end
  begin
     id 15 
     name upperneck
     direction 0.0820814 0.98162 -0.172292   
     length 1.65275   
     axis 0 0 0   XYZ
    dof rx ry rz
    limits (-20.0 45.0)
           (-30.0 30.0)
           (-30.0 30.0)
  end
  begin
     id 16
     name head
     direction 0.0336554 0.996413 -0.0776455  
     length 1.66415  
     axis 0 0 0   XYZ
    dof rx ry rz
    limits (-20.0 45.0)
           (-30.0 30.0)
           (-30.0 30.0)
  end
  begin
     id 17 
     name lclavicle
     direction 0.94696 0.284418 -0.149576  
     length 3.41447  
     axis 0 0 0   XYZ
    dof ry rz
    limits (-20.0 10.0)
           (0.0 20.0)
  end
  begin
     id 18 
     name lhumerus
     direction 1 -0.000130264 -9.81312e-005   
     length 5.19964   
     axis 180 -30 -90   XYZ
    dof rx ry rz
    limits (-60.0 90.0)
           (-90.0 90.0)
           (-90.0 90.0)
  end
  begin
     id 19
     name lradius
     direction 1 -4.48961e-011 1.43854e-026   
     length 3.32189   
     axis 180 -30 -90   XYZ
    dof rx
    limits (-10.0 170.0)
  end
  begin
     id 20
     name lwrist
     direction 1 -4.48958e-011 3.1502e-026   
     length 1.66095   
     axis -1.97692e-014 90 90   XYZ
    dof ry
    limits (-180.0 0.0)
 end
  begin
     id 21 
     name lhand
     direction 1 -4.48927e-011 6.3004e-026   
     length 0.645616   
     axis -4.02019e-014 90 90   XYZ
    dof rx rz
    limits (-90.0 90.0)
           (-45.0 45.0)
  end
  begin
     id 22 
     name lfingers
     direction 1 -4.4904e-011 1.26008e-025   
     length 0.520512   
     axis -8.04039e-014 90 90   XYZ
    dof rx
    limits (0.0 90.0)
  end
  begin
     id 23
     name lthumb
     direction 0.707107 -6.34947e-011 0.707107   
     length 0.747354   
     axis -90 45 2.85299e-015   XYZ
    dof rx rz
    limits (-45.0 45.0)
           (-45.0 45.0)
  end
  begin
     id 24 
     name rclavicle
     direction -0.909391 0.383475 -0.161107   
     length 3.25176  
     axis 0 0 0   XYZ 
    dof ry rz
    limits (-10.0 20.0)
           (-20.0 0.0)
  end
  begin
     id 25 
     name rhumerus
     direction -1 -4.48965e-011 -1.81384e-027  
     length 5.6595   
     axis 180 30 90   XYZ
    dof rx ry rz
    limits (-90.0 60.0)
           (-90.0 90.0)
           (-90.0 90.0)
  end
  begin
     id 26 
     name rradius
     direction -1 -4.48996e-011 -8.09397e-027   
     length 3.37604   
     axis 180 30 90   XYZ
    dof rx
    limits (-10.0 170.0)
  end
  begin
     id 27 
     name rwrist
     direction -1 -4.48927e-011 -1.56669e-026   
     length 1.68802   
     axis 1.21142e-014 -90 -90   XYZ
    dof ry
    limits (-180.0 0.0)
  end
  begin
     id 28
     name rhand
     direction -1 -4.48912e-011 -3.13339e-026   
     length 0.824702   
     axis 1.99937e-014 -90 -90   XYZ
    dof rx rz
    limits (-90.0 90.0)
           (-45.0 45.0)
  end
  begin
     id 29
     name rfingers
     direction -1 -4.49011e-011 -6.26677e-026   
     length 0.664896   
     axis 3.99874e-014 -90 -90   XYZ
    dof rx
    limits (0.0 90.0)
  end
  begin
     id 30
     name rthumb
     direction -0.707107 -6.34931e-011 0.707107   
     length 0.954662   
     axis -90 -45 -2.85299e-015   XYZ
    dof rx rz
    limits (-45.0 45.0)
           (-45.0 45.0)
  end
:hierarchy
  begin
    root lhipjoint rhipjoint lowerback
    lhipjoint lfemur
    lfemur ltibia
    ltibia lfoot
    lfoot ltoes
    rhipjoint rfemur
    rfemur rtibia
    rtibia rfoot
    rfoot rtoes
    lowerback upperback
    upperback thorax
    thorax lowerneck lclavicle rclavicle
    lowerneck upperneck
    upperneck head
    lclavicle lhumerus
    lhumerus lradius
    lradius lwrist
    lwrist lhand lthumb
    lhand lfingers
    rclavicle rhumerus
    rhumerus rradius
    rradius rwrist
    rwrist rhand rthumb
    rhand rfingers
  end

#!OML:ASF F:\VICON\USERDATA\INSTALL\rory3\rory3.ASF
:FULLY-SPECIFIED
:DEGREES
51
root 9.55321 17.7346 -14.083 2.7092 -35.0523 -5.46475
lowerback 1.42459 -0.229768 -1.60684
upperback -0.756108 -0.300846 3.77214
thorax -1.54857 -0.11999 4.80411
lowerneck -9.26857 -9.89636 -19.8471
upperneck 22.4751 -13.7212 13.2951
head 11.1379 -6.82027 6.22184
rclavicle -4.70623e-014 4.49253e-014
rhumerus -35.6912 -19.2793 -71.3417
rradius 27.8171
rwrist -8.48778
rhand -9.04964 18.7301
rfingers 7.12502
rthumb 16.8987 -10.5547
lclavicle -4.70623e-014 4.49253e-014
lhumerus -31.806 4.50099 85.9978
lradius 24.656
lwrist -16.3562
lhand -0.836666 30.5857
lfingers 7.12502
lthumb 24.7888 58.9991
rfemur -11.6562 6.71828 16.2426
rtibia 34.5536
rfoot -17.926 -7.4073
rtoes 8.58468
lfemur -6.69398 -0.785067 -17.1431
ltibia 34.9923
lfoot -24.6889 12.3702
ltoes 1.38544
52
root 9.55142 17.7353 -14.0843 2.77381 -35.0028 -5.47688
lowerback 1.41836 -0.201666 -1.62071
upperback -0.798999 -0.262559 3.76976
thorax -1.59283 -0.09922 4.80879
lowerneck -9.12862 -9.96563 -19.8267
upperneck 22.3566 -13.8078 13.1806
head 11.0726 -6.87211 6.16055
rclavicle -4.33102e-014 3.02153e-014
rhumerus -35.7092 -19.1996 -71.5003
rradius 27.9419
rwrist -8.68716
rhand -8.86307 18.682
rfingers 7.12502
rthumb 17.0782 -10.5873
lclavicle -4.33102e-014 3.02153e-014
lhumerus -31.9574 4.68666 85.9604
lradius 24.785
lwrist -16.4869
lhand -0.750814 31.0044
lfingers 7.12502
lthumb 24.871 59.4065
rfemur -11.7396 6.69107 16.2573
rtibia 34.5933
rfoot -17.9327 -7.51509
rtoes 8.18412
lfemur -6.75179 -0.817421 -17.1265
ltibia 34.9668
lfoot -24.6288 12.4037
ltoes 1.10731
53
root 9.5494 17.7356 -14.0819 2.68283 -34.9428 -5.25903
lowerback 1.30119 -0.192652 -1.77507
upperback -0.771805 -0.254598 3.68718
thorax -1.49948 -0.0956545 4.80909
lowerneck -9.13415 -10.033 -19.7607
upperneck 22.2727 -13.8877 13.1159
head 11.0474 -6.9067 6.1079
rclavicle -5.92254e-014 -2.74323e-014
rhumerus -35.6365 -18.828 -71.9024
rradius 28.1819
rwrist -9.26919
rhand -9.3296 18.0408
rfingers 7.12502
rthumb 16.6291 -11.2669
lclavicle -5.92254e-014 -2.74323e-014
lhumerus -31.9909 4.645 85.9689
lradius 24.8359
lwrist -16.3652
lhand -0.998883 31.1635
lfingers 7.12502
lthumb 24.6333 59.5983
rfemur -11.773 6.54453 16.0386
rtibia 34.6422
rfoot -18.0747 -7.40429
rtoes 8.73516
lfemur -6.7539 -0.889259 -17.3437
ltibia 34.9356
lfoot -24.5629 12.5129
ltoes 0.653665
54
root 9.54772 17.7355 -14.0795 2.45083 -34.9147 -4.84924
lowerback 1.18715 -0.200602 -2.09717
upperback -0.725355 -0.271979 3.58471
thorax -1.38512 -0.103935 4.8848
lowerneck -9.38388 -10.0728 -19.7732
upperneck 22.3411 -13.9093 13.1538
head 11.1304 -6.90336 6.11213
rclavicle -9.13167e-016 -5.1684e-015
rhumerus -35.4644 -18.5341 -72.2673
rradius 28.3006
rwrist -9.95714
rhand -9.79589 17.4493
rfingers 7.12502
rthumb 16.1802 -11.8954
lclavicle -9.13167e-016 -5.1684e-015
lhumerus -31.9978 4.75381 85.9406
lradius 24.9112
lwrist -16.1053
lhand -0.770019 31.5287
lfingers 7.12502
lthumb 24.8526 59.9333
rfemur -11.7772 6.38057 15.6387
rtibia 34.6864
rfoot -18.2075 -7.17926
rtoes 9.57274
lfemur -6.71764 -0.881912 -17.725
ltibia 34.8976
lfoot -24.5752 12.4326
ltoes 1.28749
55
root 9.54745 17.7371 -14.0832 2.55809 -34.8645 -4.89125
lowerback 1.16338 -0.195402 -2.10439
upperback -0.786069 -0.2638 3.61617
thorax -1.43497 -0.0977667 4.92189
lowerneck -9.70019 -10.1367 -19.8639
upperneck 22.5516 -13.9632 13.2158
head 11.2954 -6.91823 6.13344
rclavicle 1.08772e-013 -2.78299e-014
rhumerus -35.3347 -18.2327 -72.6352
rradius 28.4491
rwrist -11.2783
rhand -8.4252 18.121
rfingers 7.12502
rthumb 17.4997 -11.1114
lclavicle 1.08772e-013 -2.78299e-014
lhumerus -32.1735 5.05446 85.8909
lradius 25.0748
lwrist -16.059
lhand -0.263583 32.0346
lfingers 7.12502
lthumb 25.3379 60.3714
rfemur -11.8968 6.39622 15.6913
rtibia 34.7145
rfoot -18.1686 -7.27218
rtoes 9.3852
lfemur -6.83282 -0.820901 -17.6437
ltibia 34.8779
lfoot -24.5536 12.2635
ltoes 1.57294
56
root 9.54731 17.7372 -14.0857 2.67171 -34.833 -5.08514
lowerback 1.23733 -0.177146 -1.96778
upperback -0.831867 -0.236138 3.66175
thorax -1.52674 -0.0828371 4.89187
lowerneck -9.84898 -10.2157 -19.7941
upperneck 22.6297 -14.0307 13.0699
head 11.3495 -6.95024 6.04875
rclavicle 7.45443e-017 -3.57812e-015
rhumerus -35.3358 -18.4136 -72.5829
rradius 28.3281
rwrist -10.859
rhand -7.65794 18.6033
rfingers 7.12502
rthumb 18.2379 -10.5617
lclavicle 7.45443e-017 -3.57812e-015
lhumerus -32.2747 5.05795 85.919
lradius 25.121
lwrist -15.6553
lhand -0.00917616 32.4637
lfingers 7.12502
lthumb 25.5816 60.7657
rfemur -11.9111 6.47308 15.8986
rtibia 34.7266
rfoot -18.1313 -7.44115
rtoes 8.92267
lfemur -6.85853 -0.933938 -17.4651
ltibia 34.885
lfoot -24.5712 12.3138
ltoes 1.33236
57
root 9.54587 17.7366 -14.0864 2.60208 -34.7309 -5.04532
lowerback 1.27143 -0.181588 -1.9799
upperback -0.79738 -0.243253 3.61091
thorax -1.50977 -0.0872091 4.84577
lowerneck -9.84983 -10.2702 -19.7086
upperneck 22.5199 -14.1023 13.0353
head 11.312 -6.9766 6.00534
rclavicle -1.45486e-014 7.15625e-015
rhumerus -35.2504 -18.5847 -72.6701
rradius 28.2518
rwrist -10.6402
rhand -7.77711 18.5009
rfingers 7.12502
rthumb 18.1233 -10.6748
lclavicle -1.45486e-014 7.15625e-015
lhumerus -32.1531 4.84932 85.9541
lradius 24.9711
lwrist -15.0026
lhand 0.228177 32.6677
lfingers 7.12502
lthumb 25.8089 60.9369
rfemur -11.8406 6.40765 15.8813
rtibia 34.7307
rfoot -18.1476 -7.47414
rtoes 8.74684
lfemur -6.82359 -0.973763 -17.4802
ltibia 34.8935
lfoot -24.5509 12.252
ltoes 1.15389
